<svg class="img-fluid" id="outputsvg" xmlns="http://www.w3.org/2000/svg" style="transform: matrix(1, 0, 0, 1, 0, 0); transform-origin: 50% 50%; cursor: move; max-height: 363.52px; transition: transform 200ms ease-in-out 0s;" width="220" height="220" viewBox="0 0 2200 2200"><g id="l4aQuhPXCRN73crui8nORuW" fill="rgb(65,125,193)" style="transform: none;"><g style="transform: none;"><path id="pnbFJotAV" d="M1672.302638545133 685.5874912163366 C 1672.302638545133 996.7812786203101 1420.0302293916254 1249.0536877738177 1108.8364419876518 1249.0536877738177 797.6426545836783 1249.0536877738177 545.3702454301706 996.7812786203101 545.3702454301706 685.5874912163366 545.3702454301706 374.39370381236307 797.6426545836783 122.12129465885539 1108.8364419876518 122.12129465885539 1420.0302293916254 122.12129465885539 1672.302638545133 374.39370381236307 1672.302638545133 685.5874912163366 Z M961.0 1234.0  M956.9355489082932 899.9458607334664 C 956.9355489082932 864.0402713066374 927.82831761570856 834.9330400140527 891.9227281888795 834.9330400140527 856.0171387620504 834.9330400140527 826.9099074694658 864.0402713066374 826.9099074694658 899.9458607334664 826.9099074694658 935.8514501602954 856.0171387620504 964.95868145288 891.9227281888795 964.95868145288 927.82831761570856 964.95868145288 956.9355489082932 935.8514501602954 956.9355489082932 899.9458607334664 Z M934.0 945.0  m 241 -47 c -16 -55 -60 -131 -99 -171 -41 -42 -141 -99 -199 -113 -27 -6 -28 -5 -25 22 3 26 8 29 53 37 122 19 193 86 209 200 7 44 9 47 37 47 27 0 30 -3 24 -22 z  m 210 -20 c -26 -154 -119 -292 -257 -383 -61 -40 -206 -95 -250 -95 -26 0 -28 3 -28 39 0 41 13 51 71 51 43 0 148 40 205 79 95 64 174 200 174 301 0 46 4 50 53 50 l 39 0 -7 -42 z "></path></g></g><g id="l6fLgAFhU34Az7Bt3IcqjEf" fill="rgb(255,255,255)" style="transform: none;"><g style="transform: none;"><path id="p1Fd56wWxY" d="M997.5680946452072 898.8573301159125 C 997.5680946452072 956.6553942513316 950.7135060446864 1003.5099828518524 892.91544190926737 1003.5099828518524 835.11737777384832 1003.5099828518524 788.2627891733275 956.6553942513316 788.2627891733275 898.8573301159125 788.2627891733275 841.0592659804935 835.11737777384832 794.2046773799726 892.91544190926737 794.2046773799726 950.7135060446864 794.2046773799726 997.5680946452072 841.0592659804935 997.5680946452072 898.8573301159125 Z M816.0 969.0 "></path><path id="poncFINzu" d="M 1084 903 c -16 -114 -87 -181 -209 -201 l -50 -7 0 -60 0 -60 40 4 c 94 8 215 76 271 152 43 59 74 136 74 184 l 0 35 -59 0 -60 0 -7 -47 z "></path><path id="p19AmMqkQo" d="M 1277 943 c -4 -3 -7 -23 -7 -43 0 -101 -79 -237 -174 -301 -57 -39 -162 -79 -205 -79 -67 0 -72 -6 -69 -84 l 3 -71 55 3 c 76 5 200 48 274 95 157 100 266 283 266 447 l 0 40 -68 0 c -38 0 -72 -3 -75 -7 z "></path></g></g><g id="texts" style="transform: none;"><g style="transform: none;">
   <text font-family="Arial" x="49.1147%" y="79.54389%" text-anchor="middle" dominant-baseline="central" font-size="536">VK RSS</text>
</g>
</g></svg>